<mxfile host="app.diagrams.net" modified="2024-05-15T09:58:28.454Z" agent="Mozilla/5.0 (Windows NT 10.0; Win64; x64; rv:125.0) Gecko/20100101 Firefox/125.0" etag="DrwleolzEsrOtowyUD0F" version="24.4.0" type="github">
  <diagram name="Page-1" id="vvT05L4JUfe_ET9gplE-">
    <mxGraphModel dx="1434" dy="782" grid="1" gridSize="10" guides="1" tooltips="1" connect="1" arrows="1" fold="1" page="1" pageScale="1" pageWidth="850" pageHeight="1100" math="0" shadow="0">
      <root>
        <mxCell id="0" />
        <mxCell id="1" parent="0" />
        <mxCell id="g3kox9_ujbpVZJbk-zrN-26" style="edgeStyle=orthogonalEdgeStyle;rounded=0;orthogonalLoop=1;jettySize=auto;html=1;entryX=0;entryY=0.5;entryDx=0;entryDy=0;" parent="1" source="g3kox9_ujbpVZJbk-zrN-1" target="g3kox9_ujbpVZJbk-zrN-2" edge="1">
          <mxGeometry relative="1" as="geometry" />
        </mxCell>
        <mxCell id="g3kox9_ujbpVZJbk-zrN-1" value="Actor" style="shape=umlActor;verticalLabelPosition=bottom;verticalAlign=top;html=1;outlineConnect=0;" parent="1" vertex="1">
          <mxGeometry x="80" y="215" width="30" height="60" as="geometry" />
        </mxCell>
        <mxCell id="g3kox9_ujbpVZJbk-zrN-2" value="Browser" style="swimlane;whiteSpace=wrap;html=1;startSize=23;" parent="1" vertex="1">
          <mxGeometry x="200" y="185" width="100" height="120" as="geometry" />
        </mxCell>
        <mxCell id="g3kox9_ujbpVZJbk-zrN-28" style="edgeStyle=orthogonalEdgeStyle;rounded=0;orthogonalLoop=1;jettySize=auto;html=1;entryX=0;entryY=0.5;entryDx=0;entryDy=0;exitX=0.875;exitY=0.5;exitDx=0;exitDy=0;exitPerimeter=0;" parent="1" source="g3kox9_ujbpVZJbk-zrN-3" target="g3kox9_ujbpVZJbk-zrN-12" edge="1">
          <mxGeometry relative="1" as="geometry" />
        </mxCell>
        <mxCell id="g3kox9_ujbpVZJbk-zrN-3" value="Local Network" style="ellipse;shape=cloud;whiteSpace=wrap;html=1;" parent="1" vertex="1">
          <mxGeometry x="400" y="205" width="120" height="80" as="geometry" />
        </mxCell>
        <mxCell id="g3kox9_ujbpVZJbk-zrN-4" value="" style="swimlane;whiteSpace=wrap;html=1;" parent="1" vertex="1">
          <mxGeometry x="600" y="10" width="550" height="760" as="geometry" />
        </mxCell>
        <mxCell id="g3kox9_ujbpVZJbk-zrN-7" value="Device Management DB" style="shape=datastore;whiteSpace=wrap;html=1;" parent="g3kox9_ujbpVZJbk-zrN-4" vertex="1">
          <mxGeometry x="410" y="495" width="70" height="90" as="geometry" />
        </mxCell>
        <mxCell id="g3kox9_ujbpVZJbk-zrN-8" value="" style="endArrow=none;html=1;rounded=0;entryX=1;entryY=0.5;entryDx=0;entryDy=0;exitX=0;exitY=0.5;exitDx=0;exitDy=0;" parent="g3kox9_ujbpVZJbk-zrN-4" source="g3kox9_ujbpVZJbk-zrN-7" target="g3kox9_ujbpVZJbk-zrN-10" edge="1">
          <mxGeometry width="50" height="50" relative="1" as="geometry">
            <mxPoint x="175" y="200" as="sourcePoint" />
            <mxPoint x="355" y="50" as="targetPoint" />
          </mxGeometry>
        </mxCell>
        <mxCell id="g3kox9_ujbpVZJbk-zrN-25" style="edgeStyle=orthogonalEdgeStyle;rounded=0;orthogonalLoop=1;jettySize=auto;html=1;entryX=0.5;entryY=1;entryDx=0;entryDy=0;startArrow=classic;startFill=1;" parent="g3kox9_ujbpVZJbk-zrN-4" source="g3kox9_ujbpVZJbk-zrN-10" target="g3kox9_ujbpVZJbk-zrN-12" edge="1">
          <mxGeometry relative="1" as="geometry" />
        </mxCell>
        <mxCell id="-ot3u-HDswbifuTOad3X-6" style="edgeStyle=orthogonalEdgeStyle;rounded=0;orthogonalLoop=1;jettySize=auto;html=1;entryX=0;entryY=0.5;entryDx=0;entryDy=0;" edge="1" parent="g3kox9_ujbpVZJbk-zrN-4" source="g3kox9_ujbpVZJbk-zrN-10" target="-ot3u-HDswbifuTOad3X-1">
          <mxGeometry relative="1" as="geometry" />
        </mxCell>
        <mxCell id="g3kox9_ujbpVZJbk-zrN-10" value="&lt;br&gt;&lt;b&gt;Dashboard Backend&lt;/b&gt;" style="html=1;dropTarget=0;whiteSpace=wrap;" parent="g3kox9_ujbpVZJbk-zrN-4" vertex="1">
          <mxGeometry x="150" y="495" width="180" height="90" as="geometry" />
        </mxCell>
        <mxCell id="g3kox9_ujbpVZJbk-zrN-11" value="" style="shape=module;jettyWidth=8;jettyHeight=4;" parent="g3kox9_ujbpVZJbk-zrN-10" vertex="1">
          <mxGeometry x="1" width="20" height="20" relative="1" as="geometry">
            <mxPoint x="-27" y="7" as="offset" />
          </mxGeometry>
        </mxCell>
        <mxCell id="g3kox9_ujbpVZJbk-zrN-12" value="&lt;br&gt;&lt;b&gt;Dashboard Frontend&lt;/b&gt;" style="html=1;dropTarget=0;whiteSpace=wrap;" parent="g3kox9_ujbpVZJbk-zrN-4" vertex="1">
          <mxGeometry x="20" y="190" width="180" height="90" as="geometry" />
        </mxCell>
        <mxCell id="g3kox9_ujbpVZJbk-zrN-13" value="" style="shape=module;jettyWidth=8;jettyHeight=4;" parent="g3kox9_ujbpVZJbk-zrN-12" vertex="1">
          <mxGeometry x="1" width="20" height="20" relative="1" as="geometry">
            <mxPoint x="-27" y="7" as="offset" />
          </mxGeometry>
        </mxCell>
        <mxCell id="-ot3u-HDswbifuTOad3X-1" value="Device Data InfluxDB" style="shape=datastore;whiteSpace=wrap;html=1;" vertex="1" parent="g3kox9_ujbpVZJbk-zrN-4">
          <mxGeometry x="410" y="370" width="70" height="90" as="geometry" />
        </mxCell>
        <mxCell id="-ot3u-HDswbifuTOad3X-8" style="edgeStyle=orthogonalEdgeStyle;rounded=0;orthogonalLoop=1;jettySize=auto;html=1;entryX=1;entryY=0.5;entryDx=0;entryDy=0;" edge="1" parent="g3kox9_ujbpVZJbk-zrN-4" source="-ot3u-HDswbifuTOad3X-4" target="g3kox9_ujbpVZJbk-zrN-12">
          <mxGeometry relative="1" as="geometry" />
        </mxCell>
        <mxCell id="-ot3u-HDswbifuTOad3X-4" value="&lt;b&gt;Grafana&lt;/b&gt;" style="html=1;dropTarget=0;whiteSpace=wrap;" vertex="1" parent="g3kox9_ujbpVZJbk-zrN-4">
          <mxGeometry x="360" y="190" width="180" height="90" as="geometry" />
        </mxCell>
        <mxCell id="-ot3u-HDswbifuTOad3X-5" value="" style="shape=module;jettyWidth=8;jettyHeight=4;" vertex="1" parent="-ot3u-HDswbifuTOad3X-4">
          <mxGeometry x="1" width="20" height="20" relative="1" as="geometry">
            <mxPoint x="-27" y="7" as="offset" />
          </mxGeometry>
        </mxCell>
        <mxCell id="g3kox9_ujbpVZJbk-zrN-9" value="" style="shape=providedRequiredInterface;html=1;verticalLabelPosition=bottom;sketch=0;" parent="g3kox9_ujbpVZJbk-zrN-4" vertex="1">
          <mxGeometry x="530" y="650" width="40" height="40" as="geometry" />
        </mxCell>
        <mxCell id="g3kox9_ujbpVZJbk-zrN-24" style="edgeStyle=orthogonalEdgeStyle;rounded=0;orthogonalLoop=1;jettySize=auto;html=1;entryX=0.539;entryY=0.989;entryDx=0;entryDy=0;entryPerimeter=0;startArrow=classic;startFill=1;exitX=0;exitY=0.5;exitDx=0;exitDy=0;exitPerimeter=0;" parent="g3kox9_ujbpVZJbk-zrN-4" source="g3kox9_ujbpVZJbk-zrN-9" target="g3kox9_ujbpVZJbk-zrN-10" edge="1">
          <mxGeometry relative="1" as="geometry">
            <Array as="points">
              <mxPoint x="247" y="670" />
            </Array>
            <mxPoint x="252" y="625" as="sourcePoint" />
          </mxGeometry>
        </mxCell>
        <mxCell id="-ot3u-HDswbifuTOad3X-12" style="edgeStyle=orthogonalEdgeStyle;rounded=0;orthogonalLoop=1;jettySize=auto;html=1;" edge="1" parent="g3kox9_ujbpVZJbk-zrN-4" source="-ot3u-HDswbifuTOad3X-1" target="-ot3u-HDswbifuTOad3X-4">
          <mxGeometry relative="1" as="geometry">
            <Array as="points">
              <mxPoint x="445" y="300" />
              <mxPoint x="445" y="300" />
            </Array>
          </mxGeometry>
        </mxCell>
        <mxCell id="g3kox9_ujbpVZJbk-zrN-18" style="edgeStyle=orthogonalEdgeStyle;rounded=0;orthogonalLoop=1;jettySize=auto;html=1;entryX=0;entryY=0.5;entryDx=0;entryDy=0;" parent="1" source="g3kox9_ujbpVZJbk-zrN-9" target="g3kox9_ujbpVZJbk-zrN-14" edge="1">
          <mxGeometry relative="1" as="geometry">
            <Array as="points">
              <mxPoint x="1180" y="680" />
              <mxPoint x="1180" y="530" />
            </Array>
          </mxGeometry>
        </mxCell>
        <mxCell id="g3kox9_ujbpVZJbk-zrN-19" style="edgeStyle=orthogonalEdgeStyle;rounded=0;orthogonalLoop=1;jettySize=auto;html=1;entryX=0;entryY=0.5;entryDx=0;entryDy=0;" parent="1" source="g3kox9_ujbpVZJbk-zrN-9" target="g3kox9_ujbpVZJbk-zrN-15" edge="1">
          <mxGeometry relative="1" as="geometry">
            <Array as="points">
              <mxPoint x="1180" y="680" />
              <mxPoint x="1180" y="705" />
            </Array>
          </mxGeometry>
        </mxCell>
        <mxCell id="g3kox9_ujbpVZJbk-zrN-14" value="Device 1" style="swimlane;" parent="1" vertex="1">
          <mxGeometry x="1275" y="460" width="130" height="140" as="geometry" />
        </mxCell>
        <mxCell id="g3kox9_ujbpVZJbk-zrN-16" value="192.178.201.251" style="text;html=1;align=center;verticalAlign=middle;resizable=0;points=[];autosize=1;strokeColor=none;fillColor=none;" parent="g3kox9_ujbpVZJbk-zrN-14" vertex="1">
          <mxGeometry x="10" y="40" width="110" height="30" as="geometry" />
        </mxCell>
        <mxCell id="g3kox9_ujbpVZJbk-zrN-15" value="Device 2" style="swimlane;" parent="1" vertex="1">
          <mxGeometry x="1275" y="640" width="130" height="130" as="geometry" />
        </mxCell>
        <mxCell id="g3kox9_ujbpVZJbk-zrN-17" value="192.178.201.001" style="text;html=1;align=center;verticalAlign=middle;resizable=0;points=[];autosize=1;strokeColor=none;fillColor=none;" parent="g3kox9_ujbpVZJbk-zrN-15" vertex="1">
          <mxGeometry x="10" y="40" width="110" height="30" as="geometry" />
        </mxCell>
        <mxCell id="g3kox9_ujbpVZJbk-zrN-29" style="edgeStyle=orthogonalEdgeStyle;rounded=0;orthogonalLoop=1;jettySize=auto;html=1;entryX=0.16;entryY=0.55;entryDx=0;entryDy=0;entryPerimeter=0;endArrow=none;endFill=0;" parent="1" source="g3kox9_ujbpVZJbk-zrN-2" target="g3kox9_ujbpVZJbk-zrN-3" edge="1">
          <mxGeometry relative="1" as="geometry">
            <Array as="points">
              <mxPoint x="330" y="249" />
              <mxPoint x="330" y="249" />
            </Array>
          </mxGeometry>
        </mxCell>
      </root>
    </mxGraphModel>
  </diagram>
</mxfile>
